<svg xmlns="http://www.w3.org/2000/svg" version="1.1" xmlns:xlink="http://www.w3.org/1999/xlink" width="451" height="448"><svg xmlns="http://www.w3.org/2000/svg" version="1.1" xmlns:xlink="http://www.w3.org/1999/xlink" width="451" height="448"><svg width="451" height="448" viewBox="0 0 451 448" fill="none" xmlns="http://www.w3.org/2000/svg">
<path d="M248.226 3.81952C254.058 3.76905 261.847 3.92603 267.657 4.48682L265.487 3.98778C247.542 0.959556 237.531 0.247302 225.334 0.000557899C233.124 0.325812 240.52 2.98395 248.226 3.81952Z" fill="#404CA8"></path>
<path d="M209.104 14.2882C214.841 11.9554 222.563 9.01115 228.473 7.183C213.102 3.71176 201.388 1.51355 194.187 2.0519L188.983 2.82571C181.67 4.28375 171.918 6.26902 164.69 8.12521C171.431 7.01487 185.108 8.79813 205.341 13.4246C206.474 13.6825 207.949 14.3779 209.104 14.2882Z" fill="#404CA8"></path>
<path d="M171.654 39.1936C177.021 34.8195 184.295 29.1107 189.942 25.1067C158.74 18.0857 143.694 16.1173 136.292 18.0857L122.71 24.4225L109.896 31.466C114.959 29.621 126.556 28.8303 171.654 39.1936Z" fill="#404CA8"></path>
<path d="M137.838 76.9077C142.571 70.7279 149.003 62.5684 154.061 56.6578C126.224 50.3939 93.2388 43.7878 85.2196 48.375C79.5108 53.2314 71.9011 59.7366 66.4727 64.907L63.1696 68.2324C70.2243 64.0714 92.5547 66.6622 137.838 76.9077Z" fill="#404CA8"></path>
<path d="M109.7 125.823C113.502 118.062 118.7 107.777 122.867 100.207C104.692 96.1184 49.4156 83.6802 43.6115 91.3068L43.5048 91.4414C38.441 98.9335 31.8743 109.061 27.3207 116.879C29.5134 114.905 36.1866 108.893 109.7 125.823Z" fill="#404CA8"></path>
<path d="M89.2647 183.965C91.8107 174.97 95.3549 163.014 98.2934 154.142C76.7201 149.292 19.4137 136.411 14.2994 145.338L10.7384 155.578C9.08406 161.528 6.71201 169.429 5.33248 175.447C7.05408 172.946 11.63 166.289 89.2647 183.965Z" fill="#404CA8"></path>
<path d="M79.3233 243.816C80.243 234.927 81.6112 223.089 82.9066 214.251C46.4277 206.036 4.11673 197.697 0.667916 206.176L0.0230713 218.356C0.101581 223.757 -0.00497877 230.963 0.292236 236.352C2.52415 229.594 26.1499 231.832 79.3233 243.816Z" fill="#404CA8"></path>
<path d="M79.8875 300.747C79.2706 292.431 78.5864 281.327 78.3453 272.988C59.6152 268.766 2.62842 255.913 3.99672 266.287C5.49401 272.697 7.39508 281.271 9.2008 287.602L11.5113 294.937C11.4664 292.481 11.3262 285.006 79.8875 300.747Z" fill="#404CA8"></path>
<path d="M90.239 351.919C88.181 344.6 85.5845 334.792 83.919 327.379C66.4394 323.437 20.0123 312.956 22.8442 322.595C27.0389 330.418 32.8542 340.742 37.5536 348.279C34.2674 340.423 64.3926 345.918 90.239 351.919Z" fill="#404CA8"></path>
<path d="M109.674 394.495C106.281 388.624 101.907 380.689 98.9238 374.593C67.0938 367.421 52.4293 366.394 55.3286 371.537L55.8838 372.266L60.6785 377.554C65.6134 382.472 72.2026 389.016 77.3842 393.671C76.0551 392.364 73.2849 389.639 80.6199 389.678C86.0371 389.7 95.8114 391.327 109.674 394.495Z" fill="#404CA8"></path>
<path d="M137.514 425.661C132.905 421.674 126.882 416.178 122.659 411.776C101.456 407.038 98.5288 408.367 99.8074 410.313C99.9981 410.604 100.71 411.451 103.189 412.993C107.815 415.808 114.029 419.504 118.773 422.128C125.626 425.667 125.755 425.729 129.501 427.478C130.807 428.078 132.557 428.875 133.869 429.458C131.542 428.415 124.454 425.235 126.058 424.276C127.46 423.441 135.025 425.112 137.514 425.661Z" fill="#404CA8"></path>
<path d="M253.88 2.18356C257.391 2.67144 261.199 3.26024 265.494 3.98926C258.871 2.56487 255.636 2.16673 253.88 2.18356Z" fill="#404CA8"></path>
<mask id="mask0_1_2113" style="mask-type:luminance" maskUnits="userSpaceOnUse" x="221" y="0" width="131" height="48">
<path d="M351.301 47.145L340.702 38.3857L329.464 30.4001C310.471 27.3214 254.415 8.94461 251.605 2.78161C251.97 2.50122 252.424 2.20397 253.882 2.18154C242.919 0.667423 234.995 0.213116 225.344 1.52588e-05C222.282 0.0617027 222.209 0.190701 221.514 1.41881C225.966 10.3128 312.091 40.6568 351.301 47.145Z" fill="white"></path>
</mask>
<g mask="url(#mask0_1_2113)">
<path d="M351.301 47.145L340.702 38.3857L329.464 30.4001C310.47 27.3214 254.414 8.94461 251.605 2.78161C251.969 2.50122 252.424 2.20397 253.882 2.18154C242.918 0.667423 234.994 0.213116 225.343 1.52588e-05C222.281 0.0617027 222.209 0.190701 221.513 1.41881C225.966 10.3128 312.091 40.6568 351.301 47.145Z" fill="url(#paint0_linear_1_2113)"></path>
</g>
<mask id="mask1_1_2113" style="mask-type:luminance" maskUnits="userSpaceOnUse" x="162" y="2" width="217" height="86">
<path d="M378.191 87.7532L371.17 76.4758L364.283 66.9144C363.767 66.191 363.033 65.7031 362.158 65.5237C311.48 55.0483 198.796 17.044 191.512 3.55161C192.179 2.91232 193.295 2.25064 194.192 2.05437L188.988 2.82818C181.648 4.15163 171.952 6.40608 164.695 8.12768L163.377 8.69394C163.22 9.2379 163.007 9.97253 162.839 10.5221C172.585 25.5847 303.405 72.5055 378.191 87.7532Z" fill="white"></path>
</mask>
<g mask="url(#mask1_1_2113)">
<path d="M378.191 87.7532L371.17 76.4758L364.283 66.9144C363.767 66.191 363.033 65.7031 362.158 65.5237C311.48 55.0483 198.796 17.044 191.512 3.55161C192.179 2.91232 193.295 2.25064 194.192 2.05437L188.988 2.82818C181.648 4.15163 171.952 6.40608 164.695 8.12768L163.377 8.69394C163.22 9.2379 163.007 9.97253 162.839 10.5221C172.585 25.5847 303.405 72.5055 378.191 87.7532Z" fill="url(#paint1_linear_1_2113)"></path>
</g>
<mask id="mask2_1_2113" style="mask-type:luminance" maskUnits="userSpaceOnUse" x="55" y="372" width="197" height="75">
<path d="M60.6842 377.553C65.5237 382.567 72.298 388.921 77.3899 393.67C91.9646 405.907 177.966 436.133 226.356 446.064L227.618 446.098L239.075 444.343L251.07 441.539C192.176 429.583 73.627 388.949 55.8894 372.265L60.6842 377.553Z" fill="white"></path>
</mask>
<g mask="url(#mask2_1_2113)">
<path d="M60.6842 377.553C65.5238 382.567 72.298 388.921 77.3899 393.67C91.9647 405.907 177.966 436.133 226.356 446.064L227.618 446.098L239.075 444.343L251.07 441.539C192.176 429.583 73.6271 388.949 55.8895 372.265L60.6842 377.553Z" fill="url(#paint2_linear_1_2113)"></path>
</g>
<mask id="mask3_1_2113" style="mask-type:luminance" maskUnits="userSpaceOnUse" x="103" y="412" width="104" height="36">
<path d="M193.233 446.214C194.893 446.45 196.441 446.651 197.848 446.831C196.244 446.629 194.708 446.422 193.233 446.214ZM118.772 422.128C122.524 424.119 122.788 424.248 129.506 427.478C130.812 428.084 132.568 428.869 133.874 429.458C141.45 432.761 155.795 438.049 171.29 442.098C172.4 442.356 173.443 442.58 174.503 442.81C173.336 442.558 172.237 442.311 171.29 442.098C175.608 443.191 177.716 443.567 179.107 443.786L178.126 443.584L179.174 443.797L179.107 443.786L179.842 443.932C180.571 444.077 181.272 444.212 181.973 444.347C182.573 444.459 183.184 444.571 183.818 444.689C184.519 444.818 185.203 444.941 185.876 445.053C186.504 445.165 187.154 445.272 187.822 445.384C188.494 445.491 189.139 445.597 189.773 445.693L189.863 445.709L189.84 445.704C190.575 445.822 191.31 445.934 191.999 446.035C191.27 445.928 190.564 445.822 189.863 445.709L193.098 446.293L200.865 447.207L206.355 447.638C186.257 444.739 124.515 425.364 103.188 412.993C107.798 415.848 114.056 419.465 118.772 422.128Z" fill="white"></path>
</mask>
<g mask="url(#mask3_1_2113)">
<path d="M193.232 446.214C194.892 446.45 196.44 446.651 197.848 446.831C196.244 446.629 194.707 446.422 193.232 446.214ZM118.772 422.128C122.524 424.119 122.787 424.248 129.505 427.478C130.812 428.084 132.567 428.869 133.874 429.458C141.45 432.761 155.795 438.049 171.289 442.098C172.399 442.356 173.443 442.58 174.502 442.81C173.336 442.558 172.237 442.311 171.289 442.098C175.607 443.191 177.716 443.567 179.106 443.786L178.125 443.584L179.174 443.797L179.106 443.786L179.841 443.932C180.57 444.077 181.271 444.212 181.972 444.347C182.572 444.459 183.183 444.571 183.817 444.689C184.518 444.818 185.202 444.941 185.875 445.053C186.503 445.165 187.154 445.272 187.821 445.384C188.494 445.491 189.139 445.597 189.772 445.693L189.862 445.709L189.84 445.704C190.574 445.822 191.309 445.934 191.999 446.035C191.27 445.928 190.563 445.822 189.862 445.709L193.098 446.293L200.865 447.207L206.355 447.638C186.256 444.739 124.514 425.364 103.188 412.993C107.797 415.848 114.056 419.465 118.772 422.128Z" fill="url(#paint3_linear_1_2113)"></path>
</g>
<mask id="mask4_1_2113" style="mask-type:luminance" maskUnits="userSpaceOnUse" x="4" y="266" width="393" height="166">
<path d="M248.924 337.462C254.84 339.245 257.857 345.773 255.362 351.431L253.209 356.315C251.122 361.043 245.868 363.516 240.911 362.052C130.038 329.331 12.1169 283.1 4.00243 266.287C5.32026 272.736 7.58023 281.221 9.2065 287.603L11.517 294.938C17.5342 306.552 80.768 333.508 155.06 358.917C159.928 360.583 163.281 365.501 162.334 370.559C161.139 376.98 154.679 380.519 148.875 378.517C86.5889 357.067 31.0658 333.901 22.8392 322.596C26.9609 330.458 32.922 340.698 37.5541 348.279C51.1811 365.131 184.597 413.291 268.72 431.797C269.533 431.976 270.357 431.864 271.097 431.488L280.984 426.458L291.79 419.992C265.316 414.446 230.53 404.834 194.775 393.624C188.831 391.757 185.926 385.05 188.584 379.425L188.618 379.347C190.816 374.715 196.087 372.421 200.977 373.952C236.957 385.229 273.318 395.419 305.333 402.793C306.494 403.057 307.689 402.726 308.558 401.913L316.667 394.336L316.818 394.191L321.686 389.071C323.587 387.074 322.639 383.799 319.953 383.171C309.539 380.732 298.722 378.035 287.657 375.124C281.45 373.492 278.264 366.595 281.018 360.796L283.166 356.248C285.302 351.739 290.366 349.435 295.172 350.741C329.845 360.14 360.099 366.909 380.517 369.169C383.658 369.516 386.736 368.21 388.66 365.697L394.369 358.228L394.711 357.745C398.322 352.311 395.137 344.954 388.688 343.956C356.011 338.886 299.198 324.07 238.931 305.598C235.022 304.398 230.777 305.991 228.646 309.49L223.487 317.941C220.459 322.91 222.898 329.426 228.456 331.164C235.325 333.318 242.161 335.421 248.924 337.462Z" fill="white"></path>
</mask>
<g mask="url(#mask4_1_2113)">
<path d="M248.924 337.462C254.84 339.245 257.857 345.773 255.362 351.431L253.208 356.315C251.122 361.043 245.868 363.516 240.91 362.052C130.038 329.331 12.1167 283.1 4.00215 266.287C5.31999 272.736 7.57996 281.221 9.20623 287.603L11.5167 294.938C17.5339 306.552 80.7677 333.508 155.06 358.917C159.928 360.583 163.281 365.501 162.333 370.559C161.139 376.98 154.679 380.519 148.875 378.517C86.5886 357.067 31.0656 333.901 22.8389 322.596C26.9606 330.458 32.9217 340.698 37.5538 348.279C51.1808 365.131 184.597 413.291 268.719 431.797C269.533 431.976 270.357 431.864 271.097 431.488L280.984 426.458L291.79 419.992C265.315 414.446 230.53 404.834 194.775 393.624C188.83 391.757 185.926 385.05 188.584 379.425L188.617 379.347C190.816 374.715 196.087 372.421 200.977 373.952C236.957 385.229 273.318 395.419 305.333 402.793C306.494 403.057 307.688 402.726 308.557 401.913L316.666 394.336L316.818 394.191L321.685 389.071C323.586 387.074 322.639 383.799 319.953 383.171C309.539 380.732 298.721 378.035 287.657 375.124C281.449 373.492 278.264 366.595 281.017 360.796L283.165 356.248C285.302 351.739 290.366 349.435 295.172 350.741C329.845 360.14 360.099 366.909 380.517 369.169C383.657 369.516 386.736 368.21 388.66 365.697L394.368 358.228L394.71 357.745C398.322 352.311 395.137 344.954 388.688 343.956C356.011 338.886 299.198 324.07 238.931 305.598C235.022 304.398 230.777 305.991 228.646 309.49L223.487 317.941C220.459 322.91 222.898 329.426 228.455 331.164C235.325 333.318 242.161 335.421 248.924 337.462Z" fill="url(#paint4_linear_1_2113)"></path>
</g>
<mask id="mask5_1_2113" style="mask-type:luminance" maskUnits="userSpaceOnUse" x="404" y="290" width="47" height="34">
<path d="M443.323 319.176L449.155 308.173C451.965 302.868 448.863 296.363 442.981 295.185C435.708 293.727 428.507 292.264 421.492 290.811C417.779 290.043 414.039 291.692 412.071 294.928L405.442 305.795C402.206 311.089 405.19 317.987 411.269 319.237C418.548 320.735 426.04 322.249 433.638 323.769C437.525 324.542 441.467 322.675 443.323 319.176Z" fill="white"></path>
</mask>
<g mask="url(#mask5_1_2113)">
<path d="M443.323 319.176L449.155 308.173C451.965 302.868 448.864 296.363 442.981 295.185C435.708 293.727 428.507 292.264 421.492 290.811C417.78 290.043 414.039 291.692 412.071 294.928L405.442 305.795C402.207 311.089 405.19 317.987 411.269 319.237C418.548 320.735 426.04 322.249 433.639 323.769C437.525 324.542 441.467 322.675 443.323 319.176Z" fill="url(#paint5_linear_1_2113)"></path>
</g>
<mask id="mask6_1_2113" style="mask-type:luminance" maskUnits="userSpaceOnUse" x="351" y="215" width="72" height="40">
<path d="M413.258 250.78L420.672 239.806C424.289 234.456 421.25 227.126 414.89 225.988C402.261 223.711 386.733 220.24 369.265 215.855C365.452 214.901 361.442 216.511 359.395 219.864L352.7 230.844C349.548 236.004 352.33 242.744 358.195 244.219C374.839 248.408 390.351 251.924 404.196 254.582C407.707 255.255 411.256 253.741 413.258 250.78Z" fill="white"></path>
</mask>
<g mask="url(#mask6_1_2113)">
<path d="M413.259 250.78L420.672 239.806C424.289 234.456 421.25 227.126 414.891 225.988C402.262 223.711 386.734 220.24 369.265 215.855C365.452 214.901 361.442 216.511 359.396 219.864L352.7 230.844C349.548 236.004 352.33 242.744 358.196 244.219C374.84 248.408 390.351 251.924 404.197 254.582C407.707 255.255 411.257 253.741 413.259 250.78Z" fill="url(#paint6_linear_1_2113)"></path>
</g>
<mask id="mask7_1_2113" style="mask-type:luminance" maskUnits="userSpaceOnUse" x="0" y="48" width="396" height="274">
<path d="M388.773 283.874C370.419 279.87 354.941 276.27 344.869 273.612C323.571 267.987 299.979 261.162 275.484 253.603C269.517 251.758 266.573 245.034 269.248 239.387L273.908 229.557C276.089 224.958 281.321 222.67 286.2 224.139C299.614 228.188 312.832 232.024 325.651 235.579C329.364 236.611 333.284 235.131 335.443 231.94L342.71 221.178C346.137 216.103 343.596 209.155 337.697 207.535C299.418 197.009 255.71 183.578 213.87 169.429C208.055 167.467 205.296 160.855 207.921 155.309L211.56 147.621C213.786 142.916 219.181 140.617 224.11 142.293C227.083 143.303 230.077 144.306 233.083 145.31C235.909 146.252 238.994 144.935 240.272 142.248L246.783 128.588C248.314 125.397 246.682 121.589 243.323 120.462C165.352 94.3014 94.3622 65.1856 84.6439 51.1885C84.8177 50.3417 85.0476 49.2145 85.2215 48.3733C79.4118 53.1119 72.0095 59.847 66.4746 64.9053L63.1715 68.2307C60.1545 77.7079 111.309 101.379 178.906 126.289C184.474 128.341 187.177 134.65 184.788 140.084L181.306 147.974C179.13 152.92 173.472 155.337 168.397 153.492C99.6729 128.453 45.0471 103.795 43.6058 91.3069L43.4992 91.4414C38.3456 98.8718 31.9584 109.112 27.3151 116.873C25.4589 130.937 131.536 174.32 240.194 209.705C245.986 211.589 248.886 218.038 246.43 223.607L242.162 233.28C240.031 238.125 234.563 240.57 229.544 238.91C125.149 204.389 19.9969 162.061 14.305 145.338L10.7383 155.578C8.87653 161.466 6.93069 169.48 5.33806 175.447C5.91567 185.064 49.5333 205.875 108.617 228.699C114.079 230.807 116.659 237.065 114.298 242.415L110.288 251.511C108.073 256.553 102.264 258.93 97.1269 256.928C45.7031 236.88 7.01477 218.049 0.67793 206.178L0.0330851 218.358C-0.101503 223.758 0.212519 230.953 0.296636 236.353C3.45384 250.21 98.9886 288.814 196.767 320.992C200.574 322.243 204.758 320.807 206.995 317.487L212.48 309.373C215.828 304.415 213.472 297.658 207.78 295.83C185.596 288.702 163.428 281.227 142.27 273.701C136.544 271.666 133.875 265.116 136.471 259.626L140.739 250.625C142.999 245.847 148.489 243.57 153.463 245.354C215.059 267.421 284.647 289.325 338.729 303.227C347.438 305.464 361.16 308.599 377.692 312.177C381.281 312.945 384.976 311.47 387.029 308.436L394.313 297.647C397.863 292.398 394.97 285.225 388.773 283.874Z" fill="white"></path>
</mask>
<g mask="url(#mask7_1_2113)">
<path d="M388.772 283.874C370.418 279.87 354.94 276.27 344.869 273.612C323.57 267.987 299.978 261.162 275.483 253.603C269.516 251.758 266.572 245.034 269.247 239.387L273.907 229.557C276.089 224.958 281.321 222.67 286.2 224.139C299.614 228.188 312.831 232.024 325.651 235.579C329.363 236.611 333.283 235.131 335.442 231.94L342.71 221.178C346.136 216.103 343.596 209.155 337.696 207.535C299.417 197.009 255.71 183.578 213.87 169.429C208.055 167.467 205.296 160.855 207.92 155.309L211.56 147.621C213.786 142.916 219.181 140.617 224.11 142.293C227.082 143.303 230.077 144.306 233.082 145.31C235.909 146.252 238.993 144.935 240.272 142.248L246.782 128.588C248.313 125.397 246.681 121.589 243.322 120.462C165.351 94.3014 94.3617 65.1856 84.6433 51.1885C84.8172 50.3417 85.0471 49.2145 85.2209 48.3733C79.4112 53.1119 72.0089 59.847 66.474 64.9053L63.1709 68.2307C60.1539 77.7079 111.309 101.379 178.905 126.289C184.474 128.341 187.177 134.65 184.788 140.084L181.305 147.974C179.13 152.92 173.471 155.337 168.396 153.492C99.6723 128.453 45.0465 103.795 43.6053 91.3069L43.4986 91.4414C38.3451 98.8718 31.9578 109.112 27.3145 116.873C25.4584 130.937 131.536 174.32 240.193 209.705C245.986 211.589 248.885 218.038 246.429 223.607L242.161 233.28C240.03 238.125 234.563 240.57 229.544 238.91C125.149 204.389 19.9964 162.061 14.3044 145.338L10.7378 155.578C8.87599 161.466 6.93014 169.48 5.33751 175.447C5.91512 185.064 49.5327 205.875 108.617 228.699C114.079 230.807 116.658 237.065 114.297 242.415L110.288 251.511C108.073 256.553 102.263 258.93 97.1263 256.928C45.7026 236.88 7.01422 218.049 0.677381 206.178L0.0325358 218.358C-0.102052 223.758 0.21197 230.953 0.296087 236.353C3.45329 250.21 98.9881 288.814 196.766 320.992C200.574 322.243 204.757 320.807 206.995 317.487L212.479 309.373C215.827 304.415 213.472 297.658 207.78 295.83C185.595 288.702 163.428 281.227 142.269 273.701C136.544 271.666 133.874 265.116 136.471 259.626L140.738 250.625C142.998 245.847 148.488 243.57 153.462 245.354C215.059 267.421 284.646 289.325 338.728 303.227C347.437 305.464 361.16 308.599 377.691 312.177C381.28 312.945 384.976 311.47 387.028 308.436L394.313 297.647C397.863 292.398 394.969 285.225 388.772 283.874Z" fill="url(#paint7_linear_1_2113)"></path>
</g>
<mask id="mask8_1_2113" style="mask-type:luminance" maskUnits="userSpaceOnUse" x="108" y="18" width="287" height="174">
<path d="M390.469 191.093C392.768 191.625 394.91 189.797 394.809 187.442L394.383 177.83L394.372 177.662L393.256 166.16C393.11 164.635 392.039 163.39 390.541 163.048C369.445 158.259 345.202 151.832 319.804 144.447C313.726 142.68 310.652 135.895 313.361 130.175L315.441 125.773C317.6 121.225 322.737 118.931 327.577 120.311C348.544 126.289 368.895 131.594 387.48 135.788C390.132 136.388 392.403 133.893 391.646 131.291L389.532 124.023L389.465 123.804L385.618 113.02C385.208 111.865 384.266 111.013 383.066 110.749C297.715 92.0529 141.33 37.0121 134.774 19.9699C135.223 19.4035 135.823 18.6464 136.277 18.0856L122.695 24.4225L109.489 31.6791L108.754 33.0474C111.894 45.1715 195.053 78.9754 281.57 106.442C287.402 108.293 290.363 114.776 287.885 120.372L285.989 124.668C283.875 129.463 278.48 131.919 273.495 130.332C271.818 129.799 270.136 129.261 268.459 128.722C265.717 127.836 262.739 129.07 261.421 131.639L254.507 145.187C252.858 148.423 254.484 152.382 257.944 153.492C304.091 168.392 351.236 181.963 390.469 191.093Z" fill="white"></path>
</mask>
<g mask="url(#mask8_1_2113)">
<path d="M390.468 191.093C392.767 191.625 394.91 189.797 394.809 187.442L394.383 177.83L394.371 177.662L393.255 166.16C393.11 164.635 392.038 163.39 390.541 163.048C369.444 158.259 345.202 151.832 319.804 144.447C313.725 142.68 310.652 135.895 313.361 130.175L315.441 125.773C317.6 121.225 322.737 118.931 327.576 120.311C348.544 126.289 368.895 131.594 387.479 135.788C390.132 136.388 392.403 133.893 391.646 131.291L389.532 124.023L389.464 123.804L385.617 113.02C385.208 111.865 384.266 111.013 383.066 110.749C297.715 92.0529 141.329 37.0121 134.774 19.9699C135.222 19.4035 135.823 18.6464 136.277 18.0856L122.695 24.4225L109.488 31.6791L108.754 33.0474C111.894 45.1715 195.052 78.9754 281.57 106.442C287.402 108.293 290.363 114.776 287.884 120.372L285.989 124.668C283.875 129.463 278.48 131.919 273.495 130.332C271.818 129.799 270.136 129.261 268.459 128.722C265.717 127.836 262.739 129.07 261.421 131.639L254.506 145.187C252.858 148.423 254.484 152.382 257.944 153.492C304.091 168.392 351.236 181.963 390.468 191.093Z" fill="url(#paint8_linear_1_2113)"></path>
</g>
<defs>
<linearGradient id="paint0_linear_1_2113" x1="68.4198" y1="-80.1751" x2="336.879" y2="45.8219" gradientUnits="userSpaceOnUse">
<stop stop-color="#88D6C7"></stop>
<stop offset="0.260963" stop-color="#88D6C7"></stop>
<stop offset="1" stop-color="#505AB2"></stop>
</linearGradient>
<linearGradient id="paint1_linear_1_2113" x1="57.3334" y1="-56.5642" x2="325.793" y2="69.4329" gradientUnits="userSpaceOnUse">
<stop stop-color="#88D6C7"></stop>
<stop offset="0.260963" stop-color="#88D6C7"></stop>
<stop offset="1" stop-color="#505AB2"></stop>
</linearGradient>
<linearGradient id="paint2_linear_1_2113" x1="-106.014" y1="291.513" x2="162.445" y2="417.51" gradientUnits="userSpaceOnUse">
<stop stop-color="#88D6C7"></stop>
<stop offset="0.260963" stop-color="#88D6C7"></stop>
<stop offset="1" stop-color="#505AB2"></stop>
</linearGradient>
<linearGradient id="paint3_linear_1_2113" x1="-112.753" y1="305.828" x2="155.707" y2="431.825" gradientUnits="userSpaceOnUse">
<stop stop-color="#88D6C7"></stop>
<stop offset="0.260963" stop-color="#88D6C7"></stop>
<stop offset="1" stop-color="#505AB2"></stop>
</linearGradient>
<linearGradient id="paint4_linear_1_2113" x1="-83.4743" y1="208.454" x2="271.975" y2="375.278" gradientUnits="userSpaceOnUse">
<stop stop-color="#88D6C7"></stop>
<stop offset="0.260963" stop-color="#88D6C7"></stop>
<stop offset="1" stop-color="#505AB2"></stop>
</linearGradient>
<linearGradient id="paint5_linear_1_2113" x1="-9.02609" y1="102.506" x2="332.454" y2="262.774" gradientUnits="userSpaceOnUse">
<stop stop-color="#88D6C7"></stop>
<stop offset="0.260963" stop-color="#88D6C7"></stop>
<stop offset="1" stop-color="#505AB2"></stop>
</linearGradient>
<linearGradient id="paint6_linear_1_2113" x1="9.48452" y1="58.056" x2="349.639" y2="217.702" gradientUnits="userSpaceOnUse">
<stop stop-color="#88D6C7"></stop>
<stop offset="0.260963" stop-color="#88D6C7"></stop>
<stop offset="1" stop-color="#505AB2"></stop>
</linearGradient>
<linearGradient id="paint7_linear_1_2113" x1="-36.3678" y1="107.48" x2="319.407" y2="274.457" gradientUnits="userSpaceOnUse">
<stop stop-color="#88D6C7"></stop>
<stop offset="0.260963" stop-color="#88D6C7"></stop>
<stop offset="1" stop-color="#505AB2"></stop>
</linearGradient>
<linearGradient id="paint8_linear_1_2113" x1="18.5798" y1="-9.60584" x2="374.354" y2="157.371" gradientUnits="userSpaceOnUse">
<stop stop-color="#88D6C7"></stop>
<stop offset="0.260963" stop-color="#88D6C7"></stop>
<stop offset="1" stop-color="#505AB2"></stop>
</linearGradient>
</defs>
</svg></svg><style>@media (prefers-color-scheme: light) { :root { filter: none; } }
@media (prefers-color-scheme: dark) { :root { filter: none; } }
</style></svg>